/* XPM */
static char *_1d1a8d6cd714599fd8cc4a9c09d3c022TSrpPSo6okg4x2D[] = {
/* columns rows colors chars-per-pixel */
"32 32 3 1 ",
"  c #3C1F5C",
". c #512B6B",
"X c #652E7E",
/* pixels */
"...X.XXXXXX..   ...X.XXXXXX..   ",
"X.X.XXXXXX.XX. .X.X.XXXXXX.XX. .",
".XXXXXXXXXXX.X ..XXXXXXXXXXX.X .",
"XXXXXXXXXXXXXX.XXXXXXXXXXXXXXX.X",
"XXXXXXXXXXXXX..XXXXXXXXXXXXXX..X",
"XXXXXXXXXXXXX. XXXXXXXXXXXXXX. X",
"X.XXXXXXXXXXX. .X.XXXXXXXXXXX. .",
".X.XXXXXXXX..   .X.XXXXXXXX..   ",
"     ..XX..          ..XX..     ",
"..  .XXXXXXXXXXX..  .XXXXXXXXXXX",
"XX. XXXXXXXXXXXXXX. XXXXXXXXXXXX",
"XXX.XXXXXXXXXXXXXXX.XXXXXXXXXXXX",
"XX..XXXXXXXX.XXXXX..XXXXXXXX.XXX",
".X. XXXXXXX.X.XX.X. XXXXXXX.X.XX",
" .  .XXX........ .  .XXX........",
"       ... ..          ... ..   ",
"...X.XXXXXX..   ...X.XXXXXX..   ",
"X.X.XXXXXX.XX. .X.X.XXXXXX.XX. .",
".XXXXXXXXXXX.X ..XXXXXXXXXXX.X .",
"XXXXXXXXXXXXXX.XXXXXXXXXXXXXXX.X",
"XXXXXXXXXXXXX..XXXXXXXXXXXXXX..X",
"XXXXXXXXXXXXX. XXXXXXXXXXXXXX. X",
"X.XXXXXXXXXXX. .X.XXXXXXXXXXX. .",
".X.XXXXXXXX..   .X.XXXXXXXX..   ",
"     ..XX..          ..XX..     ",
"..  .XXXXXXXXXXX..  .XXXXXXXXXXX",
"XX. XXXXXXXXXXXXXX. XXXXXXXXXXXX",
"XXX.XXXXXXXXXXXXXXX.XXXXXXXXXXXX",
"XX..XXXXXXXX.XXXXX..XXXXXXXX.XXX",
".X. XXXXXXX.X.XX.X. XXXXXXX.X.XX",
" .  .XXX........ .  .XXX........",
"       ... ..          ... ..   "
};
