/* XPM */
static char *_44f8789980d4ea4aad09df8a48b7ee91bn669bbdcCTktIy[] = {
/* columns rows colors chars-per-pixel */
"32 32 6 1 ",
"  c #3C1F5C",
". c #512B6B",
"X c #652E7E",
"o c #BF4830",
"O c #FDAE35",
"+ c #FFD943",
/* pixels */
"...X.XXXXXX..   ...X.XXXXXX..   ",
"X.X.XXXXXX.XX. .X.X.XXXXXX.XX. .",
".XXXXXXXXXXX.X ..XXXXXXXXXXX.X .",
"XXXXXXXXXXXXXX.XXXXXXXXXXXXXXX.X",
"XXXXXXXXXXXXXOOOOOOOooXXXXXXX..X",
"XXXXXXXXXXXOOoOOOOOOOOooXXXXX. X",
"X.XXXXXXXXOoOOOOOOOOOOOooXXXX. .",
".X.XXXXXXOoOOOOOOOOOO++OooX..   ",
"     ..XOoOOOOOOOOOO++++Ooo     ",
"..  .XXXOoOOOOOoOOo++++OOooXXXXX",
"XX. XXXXOoOOOOOoOOo+++OOOooXXXXX",
"XXX.XXXOoOOOOOoooooo+OOOOOooXXXX",
"XX..XXXOoOOOOooO+++ooOOOOOoo.XXX",
".X. XXXOoOOOOoo++++ooOOOOOooX.XX",
" .  .XXOoOOOOoo+++OOOOOOOOoo....",
"       OoOOOOooo+OOOOOOOOOoo.   ",
"...X.XXOoOOO+++ooooOOOOOOOoo.   ",
"X.X.XXXOoOO++++OOOooOOOOOOooX. .",
".XXXXXXOoO++++OOOOOooOOOOOoo.X .",
"XXXXXXXOoO+++ooOOOOooOOOOOooXX.X",
"XXXXXXXOoO++OooOOOOooOOOOOooX..X",
"XXXXXXXXOoOOOOooooooOOOOOooXX. X",
"X.XXXXXXOoOOOOOoOOoOOOOOOooXX. .",
".X.XXXXXOoOOOOOoOOoOOOOOOoo..   ",
"     ..XXOoOOOOOOOOOOOOOoo.     ",
"..  .XXXXXOoOOOOOOOOOOOooXXXXXXX",
"XX. XXXXXXXOOoOOOOOOOOooXXXXXXXX",
"XXX.XXXXXXXXXOOOOOOOooXXXXXXXXXX",
"XX..XXXXXXXX.XXXXX..XXXXXXXX.XXX",
".X. XXXXXXX.X.XX.X. XXXXXXX.X.XX",
" .  .XXX........ .  .XXX........",
"       ... ..          ... ..   "
};
