/* XPM */
static char *_a31861f3ae044778b2600086af8b9efw9DNWSaNMbL1Dvwa[] = {
/* columns rows colors chars-per-pixel */
"32 32 11 1 ",
"  c #422632",
". c #733D3B",
"X c #3C1F5C",
"o c #512B6B",
"O c #652E7E",
"+ c #F77622",
"@ c #D77643",
"# c #FDAE35",
"$ c #C28569",
"% c #FEE861",
"& c #EBD4AB",
/* pixels */
"oooOoOOOOOOooXXXoooOoOOOOOOooXXX",
"OoOoOOOOOOoOOoXoOoOoOOOOOOoOOoXo",
"oOOOOOOOOOOOoOXooOOOOOOOOOOOoOXo",
"OOOOOOOOO###OOoOOOOOO###OOOOOOoO",
"OOOOOOO..###.........###..OOOooO",
"OOOOOOO..###.........###..OOOoXO",
"OoOOOOO  #%#      .  #%#  OOOoXo",
"oOoOO##..%%%.........%%%..##oXXX",
"XXXXX##..%%%.........%%%..##XXXX",
"ooXXo##..###.........###..##OOOO",
"OOoXO##  ###  .      ###  ##OOOO",
"OOOoO##..###.........###..##OOOO",
"OOooO##..##+.........+#+..##oOOO",
"oOoXO##  +++.    ... +++  #%OoOO",
"XoXXo##  +++         +++  #%oooo",
"XXXXX####################%%%oXXX",
"oooOo+++++++++++++++++++++++oXXX",
"OoOoOO@@       ###       @@OOoXo",
"oOOOO+## ... ..###.. ... ##+oOXo",
"OOOOO+## ... ..$%$.. ... ##+OOoO",
"OOOOO+##.... .. + ...... ##+OooO",
"OOOOOO##.... .& & &. ....##OOoXO",
"OoOOOO## .....&&&&&. ....##OOoXo",
"oOoOOO## ... .$$$$$. ... ##ooXXX",
"XXXXXo## ... .$$ $$. ... ##XXXXX",
"ooXXo#########$$$$$########%OOOO",
"OOoXO###############%#%%#%%%OOOO",
"OOOoO+++++++++++++++++++++++OOOO",
"OOooOOOOOOOOoOOOOOooOOOOOOOOoOOO",
"oOoXOOOOOOOoOoOOoOoXOOOOOOOoOoOO",
"XoXXoOOOooooooooXoXXoOOOoooooooo",
"XXXXXXXoooXooXXXXXXXXXXoooXooXXX"
};
