/* XPM */
static char *_d08444838d24da5e4cec603bbf0522aAgNyp9CwVOXzDByA[] = {
/* columns rows colors chars-per-pixel */
"32 32 19 1 ",
"  c #2E1E22",
". c #323234",
"X c #534721",
"o c #3C1F5C",
"O c #512B6B",
"+ c #652E7E",
"@ c #545456",
"# c #77584A",
"$ c #7A6843",
"% c #767678",
"& c #8B5E4A",
"* c #A77E5D",
"= c #CA9E73",
"- c #979799",
"; c #B7B7BB",
": c #DDBD9C",
"> c #EEDAB3",
", c #D2D2D6",
"< c #FDF0C5",
/* pixels */
"OOO+O++++++OOoooOOO+O++++++OOooo",
"+O+O++++++O++.......++++++O++OoO",
"O++++++++++..@@%%%@@..++++++O+oO",
"++++++++++.@%%-----%%@.+++++++O+",
"+++++++++.@%---;;;---%@.+++++OO+",
"++++++++.@%---;;;;;---%@.++++Oo+",
"+O+++++.@%---;;;;;;;---%@.+++OoO",
"O+O++++.%%---;;;;;;;---%%.+OOooo",
"oooooO.@%-----;;;;;-----%@.ooooo",
"OOooO+..@%--%%...%------%@.+++++",
"++Oo+.@-.@@@@@--%.%-----%@.+++++",
"+++O+.@%--;;;;;;-%.@@%-%%@.+++++",
"++OO++.@%%----% ;%@;-@%%%@.+O+++",
"O+Oo+..        @;@;@@-.%@@.O+O++",
"oOooO.@       @;-@-..%.@@@.OOOOO",
"oooooo.@%---;;;-@.-..@.@@@.OOooo",
"OOO+O++..@%%--%@<..%@.@@@.+OOooo",
"+O+O+++++$:><<<<<.@..@@@.+O++OoO",
"O------+++$=::>>>.@%@@@@.+++O+oO",
"++-,,,,--++$$$$$$$.@%;-%@.++++O+",
"+++--,,,,-.@%%-%@.%......++++OO+",
"+++++--,,,.@%-;;%@;;-@.++++++Oo+",
"+O+++++--,..@-;-%..%-@.++++++OoO",
"O+O++++++-.@%@...;-.%.+++++OOooo",
"oooooOO++OO..@X**--%.OO++OOooooo",
"OOooO++++++.%-X**&%@.+++++++++++",
"++Oo+++++++.%-X#&#X..+++++++++++",
"+++O++++++X.@-.XXX.@X+++++++++++",
"++OO++++++X&....@&**#X++++++O+++",
"O+Oo+++++++XXX++X***&X+++++O+O++",
"oOooO+++OOOOOOOOoXXXX+++OOOOOOOO",
"oooooooOOOoOOooooooooooOOOoOOooo"
};
