/* XPM */
static char *_535d25276b44d328241ba9b39170fedlECmHm2h8g4PpZ9P[] = {
/* columns rows colors chars-per-pixel */
"32 32 22 1 ",
"  c #2E1E22",
". c #323234",
"X c #4C3400",
"o c #534721",
"O c #3C1F5C",
"+ c #512B6B",
"@ c #652E7E",
"# c #545456",
"$ c #77584A",
"% c #7A6843",
"& c #767678",
"* c #806800",
"= c #8B5E4A",
"- c #A77E5D",
"; c #B19D00",
": c #CBB900",
"> c #979799",
", c #B7B7BB",
"< c #EEDAB3",
"1 c #D2D2D6",
"2 c #FDF0C5",
"3 c white",
/* pixels */
"+++@+@@@@@@++OOO+++@+@@@@@@++OOO",
"@+@+@@@@@@+@@.......@@@@@@+@@+O+",
"+@@@@@@@@@@..##&&&##..@@@@@@+@O+",
"@@@@@@@@@@.#&&>>>>>&&#.@@@@@@@+@",
"@@@@@@@@@.#&>>>,,,>>>&#.@@@@@++@",
"@@@@@@@@.#&>>>,,,,,>>>&#.@@@@+O@",
"@+@@@@@.#&>>>,,,,,,,>>>&#.@@@+O+",
"+@+@@@@.&&>>>,,,,,,,>>>&&.@++OOO",
"OOOOO+.#&>>>>>,,,,,>>>>>&#.OOOOO",
"++OO+@.#&>>>>>>&...&&>>&>..@@@@@",
"@@+O@@.#&>>>>>&.&>>####>>>#.@@@@",
"@@@+@@.#&&>&##.&>,,,,,>3>&#.@@@@",
"@@++@@.#&&&#>,#&, &>>>,3>#.@+@@@",
"+@+O@@.##&.>##,#,#   >33> ..@+@@",
"O+OO+@.###.&..>#>,#  >31> #.++++",
"OOOOOO.###.#..>.#>,,>33>&#.++OOO",
"+++@+@@.###.#&..2#&>,31>..@++OOO",
"@+@+@@@@.###..#.222>33>%@@+@@+O+",
"+@@@@@@@.####&#.<<<>31>@@@@@+@O+",
"@@@@@@@.#&>,&#.%%%>33>@@@@@@@@+@",
"@@@@@@@@......&.#&,31>.@@@@@@++@",
"@@@@@@@@@@.#>,,XXX33>#.@@@@@@+O@",
"@+@@@@@@@@.#>&X::*31>..@@@@@@+O+",
"+@+@@@@@@@@.&.>X*::;*X.@@@@++OOO",
"OOOOO++@@++O.&>>X**::;X@@++OOOOO",
"++OO+@@@@@@@.#&=--oXXX@@@@@@@@@@",
"@@+O@@@@@@@@..o$=$o>&.@@@@@@@@@@",
"@@@+@@@@@@@@o#.ooo.>#.o@@@@@@@@@",
"@@++@@@@@@@o$--=#....=o@@@@@+@@@",
"+@+O@@@@@@@o=---o@+ooo@@@@@+@+@@",
"O+OO+@@@++++ooooO+OO+@@@++++++++",
"OOOOOOO+++O++OOOOOOOOOO+++O++OOO"
};
