/* XPM */
static char *e92076fc598a443fa2faef3e558853d8MPQx1lsYAQwivesF[] = {
/* columns rows colors chars-per-pixel */
"32 32 24 1 ",
"  c #2E1E22",
". c #323234",
"X c #4C3400",
"o c #534721",
"O c #3C1F5C",
"+ c #512B6B",
"@ c #652E7E",
"# c #545456",
"$ c #77584A",
"% c #7A6843",
"& c #767678",
"* c #806800",
"= c #8B5E4A",
"- c #A77E5D",
"; c #B19D00",
": c #CBB900",
"> c #CA9E73",
", c #979799",
"< c #B7B7BB",
"1 c #DDBD9C",
"2 c #EEDAB3",
"3 c #D2D2D6",
"4 c #FDF0C5",
"5 c white",
/* pixels */
"+++@+@@@@@@++OOO+++@+@@@@@@++OOO",
"@+@+@@@@@@+@.......+@@@@@@+@@+O+",
"+@@@@@@@@@..##&&&##..@@@@@@@+@O+",
"@@@@@@@@@.#&&,,,,,&&#.@@@@@@@@+@",
"@@@@@@@@.#&,,,<<<,,,&#.@@@@@@++@",
"@@@@@@@.#&,,,<<<<<,,,&#.@@@@@+O@",
"@+@@@@.#&,,,<<<<<<<,,,&#.@@@@+O+",
"+@+@@@.&&,,,<<<<<<<,,,&&.@@++OOO",
"OOOOO.#&,,,,,<<<<<,,,,,&#.+OOOOO",
"++OO+.#&,,,,,,&...&&,,&#..@@@@@@",
"@@+O@.#&,,,,,&.&,,#####.,#.@@@@@",
"@@@+@.#&&,&##.&,<<<<<<,,&#.@@@@@",
"@@++@.#&&&#,<#&< &,,,,&&#.@@+@@@",
"+@+O@.##&.,##<#<#        ..+@+@@",
"O+OO+.###.&..,#,<#       #.+++++",
"OOOOO.###.#..,.#,<<<,,,&#.O++OOO",
"+++@+@.###.#&..4#&,,&&#..@@++OOO",
"@+@+@@@.###..#.4444421%@@@+@@+O+",
"+@@@@@@.####&#.22211>,,,,,,@+@O+",
"@@@@@@.#&,<&#.%%%%%,,3555,@@@@+@",
"@@@@@@@....X.&.#&,,3555<,@@@@++@",
"@@@@@@@@@.X;X,#,,3555,,@@@@@@+O@",
"@+@@@@@@@.X:*,,3555<,.@@@@@@@+O+",
"+@+@@@@@.#X:;3555,,&#.@@@@@++OOO",
"OOOOO++o=--*:55<,##..++@@++OOOOO",
"++OO+@@o$--*:*X<#<,&.@@@@@@@@@@@",
"@@+O@@@@o$=X*:X,.,,&.@@@@@@@@@@@",
"@@@+@@@@@oo=X:X.#&=oo@@@@@@@@@@@",
"@@++@@@@@@o==X.o#==--o@@@@@@+@@@",
"+@+O@@@@@@@ooo@@o$---o@@@@@+@+@@",
"O+OO+@@@++++++++Ooooo@@@++++++++",
"OOOOOOO+++O++OOOOOOOOOO+++O++OOO"
};
