/* XPM */
static char *df50a8118f884bc8fa2d170a4ca6e723uGo3ejnci6R7QYTo[] = {
/* columns rows colors chars-per-pixel */
"32 32 19 1 ",
"  c #323234",
". c #4C3400",
"X c #534721",
"o c #3C1F5C",
"O c #512B6B",
"+ c #652E7E",
"@ c #545456",
"# c #77584A",
"$ c #705654",
"% c #767678",
"& c #806800",
"* c #8B5E4A",
"= c #A77E5D",
"- c #8F7772",
"; c #979799",
": c #A48D87",
"> c #B7A099",
", c #B7B7BB",
"< c #D2D2D6",
/* pixels */
"OOO+O++++++OOoooOOO+O++++++OOooo",
"+O+O++++++O++OoO+O+O++++++O++OoO",
"O+++++++++++O       ++++++++O+oO",
"+++++++++++  @@%%%@@  ++++++++O+",
"++++++++++ @%%;;;;;%%@ ++++++OO+",
"+++++++++ @%;;;,,,;;;%@ +++++Oo+",
"+O++++++ @%;;;,,,,,;;;%@ ++++OoO",
"O+O++++ @%;;;,,,,,,,;;;%@ +OOooo",
"oooooOO %%;;;,,,,,,,;;;%% Oooooo",
"OOooO+ @%;;;;;,,,,,;;;;;%@ +++++",
"++Oo++ @%;;;;;;;;;;;;;;;%@ ++++;",
"+++O++ @%;;;;;;;;;;;;;;;%@ +++;;",
"++OO+ % @%;;;;;;;;;;;;;%@ % O;<;",
"O+Oo+ % @%%;;;;;;;;;;;%%@ % ;<<;",
"oOooO @ @@%%%;;;;;;;%%%@@ @ ;<<;",
"ooooo   @@@%%%%%%%%%%%@@@   <<<;",
"OOO+O+ @@@@@@%%%%%%%@@@@@@ ;<<;o",
"+O+O++ @%@@@@@@@@@@@@@@@%@ ;<<;O",
"O++++++ @%%@@@@@@@@@@@%%@ ;<<;oO",
"++++++ @  @%%%;;;;;%%%@  @ <<;O+",
"+++++ %;,;   @@@@@@@   ;,;% ;OO+",
"+++++ @%;;@ @%%%%%%%@ %,,,@ ;Oo+",
"+O++++ @@@ %%;;;;;;;%%  @%%@ .oO",
"O+O+++ @%% @%%;;;;;%%@ %;,=*X&.o",
"oooooOOX**X @@%%%%%@@   %==*X.oo",
"OOooO+++XX @   @@@   @  X**#X+++",
"++Oo+++++ @%,-:>:>:-,%@ +XXX++++",
"+++O+++++ @;,:$$$$$-,;@ ++++++++",
"++OO++++++ ;:>:XXX$$$; +++++O+++",
"O+Oo+++++++ %;;  X***X+++++O+O++",
"oOooO+++OOOX*==#oOXXX+++OOOOOOOO",
"oooooooOOOoX===#oooooooOOOoOOooo"
};
