/* XPM */
static char *_fc71c1e24e141dcbd1210618211966fsbozLmrD3pvWLYui[] = {
/* columns rows colors chars-per-pixel */
"32 32 22 1 ",
"  c #2E1E22",
". c #323234",
"X c #4C3400",
"o c #534721",
"O c #3C1F5C",
"+ c #512B6B",
"@ c #652E7E",
"# c #545456",
"$ c #77584A",
"% c #7A6843",
"& c #767678",
"* c #806800",
"= c #8B5E4A",
"- c #A77E5D",
"; c #B19D00",
": c #CA9E73",
"> c #979799",
", c #B7B7BB",
"< c #DDBD9C",
"1 c #EEDAB3",
"2 c #D2D2D6",
"3 c #FDF0C5",
/* pixels */
"+++@+@@@@@@++OOO+++@+@@@@@@++OOO",
"@+@+@@@@@@+@@.......@@@@@@+@@+O+",
"+@@@@@@@@@@..##&&&##..@@@@@@+@O+",
"@@@@@@@@@@.#&&>>>>>&&#.@@@@@@@+@",
"@@@@@@@@@.#&>>>,,,>>>&#.@@@@@++@",
"@@@@@@@@.#&>>>,,,,,>>>&#.@@@@+O@",
"@+@@@@@.#&>>>,,,,,,,>>>&#.@@@+O+",
"+@+@@@@.&&>>>,,,,,,,>>>&&.@++OOO",
"OOOO>+.#&>>>>>,,,,,>>>>>&#.OOOOO",
"++OO>>..#&>>&&...&>>>>>>&#.@@@@@",
"@@+O>.#>.#####>>&.&>>>>>&#.@@@@@",
"@@@+>.#&>>,,,,,,>&.##&>&&#.@@@@@",
"@@++>2.#&&>>>>& ,&#,>#&&&#.@+@@@",
"+@+O>..        #,#,##>.&##.+@+@@",
"O+OO+.#       #,>#>..&.###.+++++",
"OOOOO>.#&>>>,,,>#.>..#.###.++OOO",
"+++@+@>..#&&>>&#3..&#.###.@++OOO",
"@+@+@@>22%<133333.#..###.@+@@+O+",
"+@@@@@@>22%:<<111.#&####.@@@+@O+",
"@@@@@@@>22>%%%%%%%.#&,>&#.@@@@+@",
"@@@@@@@@>2.#&&>&#.&......@@@@++@",
"@@@@@@@@>2.#&>,,&#>,,>.@@@@@@+O@",
"@+@@@@@X*;..#>,>&.>....@@@@@@+O+",
"+@+@@@X;;;.#&##....&,>#.@@@++OOO",
"OOOOO++XXX+..#####.>&--=o++OOOOO",
"++OO+@@@@@@.&>,#,,>o=--$o@@@@@@@",
"@@+O@@@@@@@.&>>.>>>.o=$o@@@@@@@@",
"@@@+@@@@@@@oo=&#.&&.=oo@@@@@@@@@",
"@@++@@@@@@o--==#o..==o@@@@@@+@@@",
"+@+O@@@@@@o---$o+@ooo@@@@@@+@+@@",
"O+OO+@@@+++oooo+O+OO+@@@++++++++",
"OOOOOOO+++O++OOOOOOOOOO+++O++OOO"
};
