/* XPM */
static char *_1043a44edcb4fe5eccbc419a0b36eb4VPtxo8kr1Zy2BXO2[] = {
/* columns rows colors chars-per-pixel */
"32 32 19 1 ",
"  c #323234",
". c #4C3400",
"X c #534721",
"o c #3C1F5C",
"O c #512B6B",
"+ c #652E7E",
"@ c #545456",
"# c #77584A",
"$ c #705654",
"% c #767678",
"& c #8B5E4A",
"* c #A77E5D",
"= c #8F7772",
"- c #B19D00",
"; c #979799",
": c #A48D87",
"> c #B7A099",
", c #B7B7BB",
"< c #D2D2D6",
/* pixels */
"OOO+O++++++OOoooOOO+O++++++OOooo",
"+O+O++++++O++       ++++++O++OoO",
"O++++++++++  @@%%%@@  ++++++O+oO",
"++++++++++ @%%;;;;;%%@ +++++++O+",
"+++++++++ @%;;;,,,;;;%@ +++++OO+",
"++++++++ @%;;;,,,,,;;;%@ ++++Oo+",
"+O+++++ @%;;;,,,,,,,;;;%@ +++OoO",
"O+O++++ %%;;;,,,,,,,;;;%% +OOooo",
"oooooO @%;;;;;,,,,,;;;;;%@ oo;oo",
"OOooO+ @%;;;;;;;;;;;;;;;%@ +;;++",
"++Oo++ @%;;;;;;;;;;;;;;;%@ ;<;++",
"+++O+ % @%;;;;;;;;;;;;;%@ % <;++",
"++OO+ % @%%;;;;;;;;;;;%%@ % <;++",
"O+Oo+ @ @@%%%;;;;;;;%%%@@ @ <;++",
"oOooO   @@@%%%%%%%%%%%@@@   <;OO",
"oooooo @@@@@@%%%%%%%@@@@@@ <<;oo",
"OOO+O+ @%@@@@@@@@@@@@@@@%@ <;ooo",
"+O+O+++ @%%@@@@@@@@@@@%%@ <<;OoO",
"O+++++ @  @%%%;;;;;%%%@  @ <;+oO",
"+++++ %;,,   @@@@@@@   ,,;% ;+O+",
"+++++ @;;,@ @%%%%%%%@ @,;;@ +OO+",
"++++++ @@  %%;;;;;;;%%  @@ ;+Oo+",
"+O+++ %,;% @%%;;;;;%%@ %;,% .OoO",
"O+O++ ;;%@  @@%%%%%@@  @%;; -.oo",
"oooooX**@  @   @@@   @  @**X.ooo",
"OOooOX&&  @%,=:>:>:=,%@  &&X++++",
"++Oo++XX+ @;,=$$$$$=,;@ +XX+++++",
"+++O++++++ ;$:=XXX=:$; +++++++++",
"++OO+++++++ @%%   %%@ ++++++O+++",
"O+Oo+++++++X&*#XOX#*&X+++++O+O++",
"oOooO+++OOOX**&XoX&**X++OOOOOOOO",
"oooooooOOOoOXXXoooXXXooOOOoOOooo"
};
