/* XPM */
static char *b70ac19a5966412ee4637e2f334a962bpjbzuj25GrhgklMC[] = {
/* columns rows colors chars-per-pixel */
"32 32 22 1 ",
"  c #2E1E22",
". c #323234",
"X c #4C3400",
"o c #534721",
"O c #3C1F5C",
"+ c #512B6B",
"@ c #652E7E",
"# c #545456",
"$ c #77584A",
"% c #7A6843",
"& c #767678",
"* c #806800",
"= c #8B5E4A",
"- c #A77E5D",
"; c #CA9E73",
": c #979799",
"> c #B7B7BB",
", c #DDBD9C",
"< c #EEDAB3",
"1 c #D2D2D6",
"2 c #FDF0C5",
"3 c white",
/* pixels */
"+++@+@@@@@@++OOO+++@+@@@@@@++OOO",
"@+@+@@@@@@+@@+O+@+@+@@@@@@+@@+O+",
"+@@@@@@@@@@@+.......@@@@@@@@+@O+",
"@@@@@@@@@@@..##&&&##..@@@@@@@@+@",
"@@@@@@@@@@.#&&:::::&&#.@@@@@@++@",
"@@@@@@@@@.#&:::>>>:::&#.@@@@@+O@",
"@+@@@@@@.#&:::>>>>>:::&#.@@@@+O+",
"+@+@@@@.#&:::>>>>>>>:::&#.@++OOO",
"OOOOO++.&&:::>>>>>>>:::&&.+OOOOO",
"++OO+@.#&:::::>>>>>:::::&#.@@@@@",
":@+O@@.#&..#&&:::::&&#..&#.@@@@@",
"::@+@@.#.#:..#######..:#.#.@@@@@",
":3:+@.&.#&&::>>>>>>>::&&#.&.+@@@",
":33:@.&.## #&&:::::&&# ##.&.@+@@",
":33>+.#.#:#           #:#.#.++++",
":131:...#&:#         #:&#...+OOO",
"+:33:@...#&::>>>>>>>::&#...++OOO",
"@:13>@.##..#&&:::::&&#..##.@@+O+",
"+@:31:@.#&.,<2222222<,.&#.@@+@O+",
"@@:11:.&...%;,<<<<<,;%...&.@@@+@",
"@@@:11:::>&#%%%%%%%%%#:>>:&.@++@",
"@@@:11:XX:#.#&:&&&:&#.:>::#.@+O@",
"@+@X:11**X.&:>>:::>>:&####.@@+O+",
"+@X***XXX..&::&###&::&.>>:#.+OOO",
"OOOXXXoo@+...##&:&##..o--:&.OOOO",
"++OO+@@@@.#&#..###..##o--=o@@@@@",
"@@+O@@@@.#&>:&#>>>#&>&o==$o@@@@@",
"@@@+@@@@.#:>..&:>:&.>:#ooo@@@@@@",
"@@++@@@@@.>.#&.&:&.#.:.@@@@@+@@@",
"+@+O@@@@@@.#:>:...===.@@@@@+@+@@",
"O+OO+@@@+++o=--$O+ooo@@@++++++++",
"OOOOOOO+++Oo---$OOOOOOO+++O++OOO"
};
