/* XPM */
static char *f06641ae34444a55f4625937a004ecc2PDh21CsRXGrfHVOK[] = {
/* columns rows colors chars-per-pixel */
"32 32 24 1 ",
"  c #2E1E22",
". c #323234",
"X c #4C3400",
"o c #534721",
"O c #3C1F5C",
"+ c #512B6B",
"@ c #652E7E",
"# c #545456",
"$ c #77584A",
"% c #7A6843",
"& c #767678",
"* c #806800",
"= c #8B5E4A",
"- c #A77E5D",
"; c #B19D00",
": c #CBB900",
"> c #CA9E73",
", c #979799",
"< c #B7B7BB",
"1 c #DDBD9C",
"2 c #EEDAB3",
"3 c #D2D2D6",
"4 c #FDF0C5",
"5 c white",
/* pixels */
"+++@+@@@@@@++OOO+++@+@@@@@@++OOO",
"@+@+@@@@@@+@@+.......@@@@@+@@+O+",
"+@@@@@@@@@@@..##&&&##..@@@@@+@O+",
"@@@@@@@@@@@.#&&,,,,,&&#.@@@@@@+@",
"@@@@@@@@@@.#&,,,<<<,,,&#.@@@@++@",
"@@@@@@@@@.#&,,,<<<<<,,,&#.@@@+O@",
"@+@@@@@@.#&,,,<<<<<<<,,,&#.@@+O+",
"+@+@@@@@.&&,,,<<<<<<<,,,&&.++OOO",
"OOOOO++.#&,,,,,<<<<<,,,,,&#.OOOO",
"++O,+@@.#&..#&&,,,,,&&#..&#.@@@@",
"@@+,,@@.#.#,..#######..,#.#.@@@@",
"@@@,5,.&.#&&,,<<<<<<<,,&&#.&.@@@",
"@@+,5<.&.## #&&,,,,,&&# ##.&.@@@",
"+@+,55,#.#,#           #,#.#.+@@",
"O+O,55,..#&,#         #,&#...+++",
"OOO,35,...#&,,<<<<<<<,,&#...+OOO",
"+++,35<.##..#&&,,,,,&&#..##.+OOO",
"@+@+,55,.#&.12444444421.&#.@@+O+",
"+@@@,55,#...%>1222221>%...#.+@O+",
"@@@@,35,,<<&#%%%%%%%%%#&<<,&.@+@",
"@@@@,35<,,<#.#&,&&&,&#.#<,,#.++@",
"@@@@@,55XXX.&,<<,,,<<,&..##.@+O@",
"@+@@@,55*::X&,,&###&,,&.&,<&.+O+",
"+@+@X*;::*X...##&,&##...#&,,.OOO",
"OOOX;::**X..##..###..##..#--oOOO",
"++OOXXX==..#&<&#<<<#&<&#..==o@@@",
"@@+O@@@oo@.#,<.&,<,&.<,#.@oo@@@@",
"@@@+@@@@@@@.,.#.&,&.#.,.@@@@@@@@",
"@@++@@@@@@@@.#<&...&<#.@@@@@+@@@",
"+@+O@@@@@@@+o==$o@o$==o@@@@+@+@@",
"O+OO+@@@++++o--=o+o=--o@++++++++",
"OOOOOOO+++O++oooOOOoooO+++O++OOO"
};
