/* XPM */
static char *_976139c15184151aaae5587495adcf0WJIyfsBczqnVvWy4[] = {
/* columns rows colors chars-per-pixel */
"32 32 27 1 ",
"  c #0E0E10",
". c #191919",
"X c #2E2300",
"o c #303032",
"O c gray20",
"+ c #323234",
"@ c #640A0E",
"# c #4A3A08",
"$ c #3C1F5C",
"% c #512B6B",
"& c #652E7E",
"* c #444444",
"= c gray29",
"- c #525254",
"; c #545456",
": c #565657",
"> c #686868",
", c #6D6D6E",
"< c #737375",
"1 c #971E2A",
"2 c #E53A52",
"3 c #885D61",
"4 c #846C6E",
"5 c #FA6B73",
"6 c #808080",
"7 c #939397",
"8 c #AEAEB2",
/* pixels */
"%%%&%&&&&&&%%$$$%%%&%&&&&&&%%$$$",
"&%&%&&&&&&%&&%$%&%&%&&&&&&%&&%$%",
"%&&&&&&&&&&&%&$%%&&&&&&&&&&&%&$%",
"&&&&&&&&&&&&&&%&&&&&&&&&&&&&&&%&",
"&&&&&&&&&&&&&.......&&&&&&&&&%%&",
"&&&&&&&&&&&..OO===OO..&&&&&&&%$&",
"&%&&&&&&&&.O==>>>>>==O.&&&&&&%$%",
"%&%&&&&&&.O=>>>>>>>>>=O.&&&%%$$$",
"$$$$$%%&&.=>>666666>>>=.&%%$$$$$",
"%%$$%&&&.O>>66666666>>=O.&&&&&&&",
"&&%$&&&&.=>6666666666>>=.&&&&&&&",
"&&&%&&&&.>>6>>>>>>66>>>=.&&&&&&&",
"&&%%&&&&.>6>66666>=>>>==.&&&%&&&",
"%&%$&&&&.=>6666666>=====.&&%&%&&",
"$%$$%&&&.=66663@66>O===O.%%%%%%%",
"$$$$$$$%.>66311166>=OOOO.%$%%$$$",
"%%%&%&&&.><12521666>=OO.&&&%%$$$",
"&%&%&&&&.-O4121666=OO..&&&%&&%$%",
"%&&&&&&&&.=>66666=OO.&&&&&&&%&$%",
"&<<<<<<&&&.O.,O>OOO.&&&&&&&&&&%&",
"&&<8888<<&&    ...++++&&&&&&&%%&",
"&&&<<8888<< o--    ,;*+&&&&&&%$&",
"&%&&&<<8888 oX<777 ,,;*+&&&&&%$%",
"%&%&&&&<<88 oX#X#7 O,,;*+&&%%$$$",
"$$$$$%%&&<< O-#X#7 =,,;**+%$$$$$",
"%%$$%&&&&&& o-<777 .,,;;*+&&&&&&",
"&&%$&&&&&&& oX-<77 .;,,;**+&&&&&",
"&&&%&&&&&&& oX#X#7 .:,,;;*+&&&&&",
"&&%%&&&&&&. OX#X7- O;,,;;*+&%&&&",
"%&%$&&&&&&.O X#<- =6>,,;*+&%&%&&",
"$%$$%&&&%%%. -<- 666>,;++%%%%%%%",
"$$$$$$$%%%$%%   $....++%%%$%%$$$"
};
