/* XPM */
static char *a1c6a1f26ef14ad39cfd19bdc3ae8933Buy00zmurrt0KoDZ[] = {
/* columns rows colors chars-per-pixel */
"32 32 27 1 ",
"  c #0E0E10",
". c #191919",
"X c #2E2300",
"o c #303032",
"O c gray20",
"+ c #323234",
"@ c #640A0E",
"# c #4A3A08",
"$ c #3C1F5C",
"% c #512B6B",
"& c #652E7E",
"* c #444444",
"= c gray29",
"- c #525254",
"; c #545456",
": c #686868",
"> c #6D6D6E",
", c #737375",
"< c #971E2A",
"1 c #E53A52",
"2 c #885D61",
"3 c #846C6E",
"4 c #FA6B73",
"5 c #808080",
"6 c #939397",
"7 c #AEAEB2",
"8 c gray86",
/* pixels */
"%%%&%&&&&&&%%$$$%%%&%&&&&&&%%$$$",
"&%&%&&&&&&%&&%$%&%&%&&&&&&%&&%$%",
"%&&&&&&&&&&&%&$%%&&&&&&&&&&&%&$%",
"&&&&&&&&&&&&&.......&&&&&&&&&&%&",
"&&&&&&&&&&&..OO===OO..&&&&&&&%%&",
"&&&&&&&&&&.O==:::::==O.&&&&&&%$&",
"&%&&&&&&&.O=:::::::::=O.&&&&&%$%",
"%&%&&&&&&.=:::55555:::=.&&&%%$$$",
"$$$$$%%&.O=::5555555::=O.%%$$$$$",
"%%,$%&&&.===:5555555:===.&&&&&&&",
"&&,,&&&&.=::::55555::::=.&&&&&&&",
"&&,8,&&&.=:555:555:555:=.&&&&&&&",
"&&,86&&&.=:5555:::5555:=.&&&%&&&",
"%&,88,&&.=@25555555552@=.&&%&%&&",
"$%,88,&&.O<<<2555552<<<O.%%%%%%%",
"$$,78,$%.O<141<5:5<141<O.%$%%$$$",
"%%,786&&&.=<1<3O=O3<1<=.&&&%%$$$",
"&%&,88,&++.=:5555555:=.++&%&&%$%",
"%&&,88,&**+.O.:+:O:.O.+**&&&   %",
"&&&,78,.O***.........***O   O- &",
"&&&,786.5O;;-->+OO>;;;   o,--o &",
"&&&&,88   .;->=5:5=>;; -,6oX#O &",
"&%&&,88O,, =:55===55:= -#X#X#o %",
"%&% o-,,+ +.OO=OOO=OO. -#X#o-o $",
"$$ -,,oo ..=:=..O..=:= -,6,-oo $",
"%%$   ,:.+.O5:O.=.O:5O -,,-X#o &",
"&&%$&O..++*.=5=OOO=5=. -#X#X#o &",
"&&&%&O,,+**.:=.....=:. -,X#X#o &",
"&&%%&O>>+**.=:O.*.O:=.* o,#Xo &&",
"%&%$&&O>+++.:5=.+.=5:.++ o,- %&&",
"$%$$%&&o%%%.55:.$.:55.&&%   %%%%",
"$$$$$$$%%%$%...$$$...$$%%%$%%$$$"
};
