/* XPM */
static char *f8889566d9384538ce9e9a7a03f8610ajkGdZkl1ZFbyzjfC[] = {
/* columns rows colors chars-per-pixel */
"32 32 28 1 ",
"  c #0E0E10",
". c #191919",
"X c #2E2300",
"o c #303032",
"O c gray20",
"+ c #323234",
"@ c #640A0E",
"# c #4A3A08",
"$ c #3C1F5C",
"% c #512B6B",
"& c #652E7E",
"* c #444444",
"= c gray29",
"- c #525254",
"; c #545456",
": c #686868",
"> c #6D6D6D",
", c #6D6D6E",
"< c #737375",
"1 c #971E2A",
"2 c #E53A52",
"3 c #885D61",
"4 c #846C6E",
"5 c #FA6B73",
"6 c #808080",
"7 c #939397",
"8 c #AEAEB2",
"9 c gray86",
/* pixels */
"%%%&%&&&&&&%%$$$%%%&%&&&&&&%%$$$",
"&%&%&&&&&&%&&%$%&%&%&&&&&&%&&%$%",
"%&&&&&&&&&&&%&$%%&&&&&&&&&&&%&$%",
"&&&&&&&&&&&&&&%&&&&&&&&&&&&&&&%&",
"&&&&&&&&&&&&&.......&&&&&&&&&%%&",
"&&&&&&&&&&&..OO===OO..&&&&&&&%$&",
"&%&&&&&&&&.O==:::::==O.&&&&&&%$%",
"%&%&&&&&&.O=:::::::::=O.&&&%%$$$",
"$$$$$%%&&.=:::666666::=.&%%$$$$$",
"%%$$%&&&.O=::66666666::O.&&&&&&&",
"&&%$&&&&.=::6666666666:=.&&&&&&&",
"&&&%&&&&.=:::66::::::6::.&&&&&&&",
"&&%%&&&&.==:::=:66666:6:.&&&%&&&",
"%&%$&&&&.=====:6666666:=.&&%&%&&",
"$%$$%&&&.O===O:66@36666=.%%%%%%%",
"$$$$$$$%.OOOO=:66111366:.%$%%$$$",
"%%%&%&&&&.OO=:666125216:.&&%%$$$",
"&%&%&&&&&&..OO=6661214O=.&%&&%$%",
"%&&&&&&&&&&&.OO=66666:=.&&&&%&$%",
"&&&&&&&&&&&&&.++O:O>.+<<<<<<&&%&",
"&&&&&&&&&&&++++.....<<8999< &%%&",
"&&&&&&&&&++* -;,>><<89997<o &%$&",
"&%&&&&&++** - ;-<<8999<<#XO &%$%",
"%&%&&&+**;> <+<<89997< 7#-O %$$$",
"$$$$$+*;-,. <-8999<<.% 7<-o $$$$",
"%%$$+**;>+66+<997<..%& 7<Xo &&&&",
"&&%$+*;>>=66o<o :=O.&& 7#Xo &&&&",
"&&&%+;;,>.== o< =:6..& <#Xo &&&&",
"&&%%+*;,-+..O < .=:6:.& 7X &%&&&",
"%&%$&+*;+++.OO &.OO:66. <- %&%&&",
"$%$$%&+*++%%...%$.=666.&  %%%%%%",
"$$$$$$$+%%$%%$$$$$....$%%%$%%$$$"
};
