/* XPM */
static char *bb9ed092e0b14ad7a45dee557b74d864pWwOF81nSe0RWw0E[] = {
/* columns rows colors chars-per-pixel */
"32 32 4 1 ",
"  c gray10",
". c #343434",
"X c #444444",
"o c #565656",
/* pixels */
"ooo  oooooooo oooooo oooooooo oo",
"ooo  oooooooo oooooo oooooooo oo",
"XXX  oXXXXXXo oXXXXo oXXXXXXo oX",
"XXX  XXXXXXXX XXXXXX XXXXXXXX XX",
"XXX  XXXXXXXX XXXXXX XXXXXXXX XX",
"XXX  .XXXXXX. .XXXX. .XXXXXX. .X",
"...  ........ ...... ........ ..",
"                                ",
" oo ooooo oooooo ooo oooo oooooo",
" oX XXXXo oXXXXo oXX XXXo oXXXXo",
" XX XXXXX XXXXXX XXX XXXX XXXXXX",
" XX XXXXX XXXXXX XXX XXXX XXXXXX",
" XX XXXXX XXXXXX XXX XXXX XXXXXX",
" .X XXXX. .XXXXX .XX XXX. .XXXXX",
" .. ..... ...... ... .... ......",
"                                ",
"oooo oooooooo oooooo oooooooo oo",
"oooo oooooooo oooooo oooooooo oo",
"XXXo oXXXXXXo oXXXXo oXXXXXXo oX",
"XXXX XXXXXXXX XXXXXX XXXXXXXX XX",
"XXXX XXXXXXXX XXXXXX XXXXXXXX XX",
"XXX. .XXXXXX. .XXXX. .XXXXXX. .X",
".... ........ ...... ........ ..",
"                                ",
" oooooooo oooooo oooooooo oooooo",
" oXXXXXXo oXXXXo oXXXXXXo oXXXXo",
" XXXXXXXX XXXXXX XXXXXXXX XXXXXX",
" XXXXXXXX XXXXXX XXXXXXXX XXXXXX",
" XXXXXXXX XXXXXX XXXXXXXX XXXXXX",
" .XXXXXX. .XXXXX .XXXXXX. .XXXXX",
" ........ ...... ........ ......",
"                                "
};
